<svg xmlns="http://www.w3.org/2000/svg" xmlns:xlink="http://www.w3.org/1999/xlink" width="83px" height="112px" version="1.1" viewBox="0 0 83 112">
    <g id="Page-1" fill="none" fill-rule="evenodd" stroke="none" stroke-width="1">
        <g id="tree" fill-rule="nonzero" transform="translate(-8.000000, -9.000000)">
            <path id="Path" stroke="#9ACB55" stroke-width="10" d="M50.640625,120.5 C50.640625,99.7041001 50.640625,83.451496 50.640625,71.7421875 C50.640625,60.032879 39.3527374,54.1684954 16.7769623,54.1490367"/>
            <path id="Path-3-Copy-2" fill="#9ACB55" d="M53.5119151,70.9329509 C59.915999,63.8580128 66.5710379,60.3205437 73.4770319,60.3205437 C80.3830259,60.3205437 87.2325122,64.188768 94.0254907,71.9252165 C87.3268204,78.3386442 80.4773341,81.545358 73.4770319,81.545358 C66.4767297,81.545358 59.8216908,78.007889 53.5119151,70.9329509 Z" transform="translate(73.768703, 70.932951) rotate(147.000000) translate(-73.768703, -70.932951) "/>
            <path id="Path-2" stroke="#9ACB55" stroke-width="10" d="M50.640625,74.5078125 C50.640625,57.5664063 50.640625,69.3118252 50.640625,51.4485439 C50.640625,39.5396898 59.6200837,33.6777491 77.579001,33.8627219"/>
            <path id="Path-3" fill="#9ACB55" d="M2.82463113,25.5745183 C10.6513679,16.8329136 18.7848088,12.4621112 27.2249539,12.4621112 C35.665099,12.4621112 44.0361833,17.2415859 52.3382067,26.8005353 C44.1514418,34.7247954 35.7803576,38.6869255 27.2249539,38.6869255 C18.6695503,38.6869255 10.5361093,34.3161231 2.82463113,25.5745183 Z" transform="translate(27.581419, 25.574518) rotate(38.000000) translate(-27.581419, -25.574518) "/>
        </g>
    </g>
</svg>
